<svg xmlns="http://www.w3.org/2000/svg" width="12" height="23" viewBox="0 0 12 23"><defs><mask id="uwgrb" width="2" height="2" x="-1" y="-1"><path fill="#fff" d="M0 0h12v22H0z"/><path d="M11.43 12.132l-8.964 9.48a.97.97 0 0 1-1.425 0 1.106 1.106 0 0 1 0-1.504l8.253-8.728-8.252-8.728a1.108 1.108 0 0 1 0-1.506.97.97 0 0 1 1.425 0l8.964 9.48a1.12 1.12 0 0 1-.001 1.506z"/></mask><filter id="uwgra" width="32" height="43" x="-10" y="-10" filterUnits="userSpaceOnUse"><feOffset dy="1" in="SourceGraphic" result="FeOffset1023Out"/><feGaussianBlur in="FeOffset1023Out" result="FeGaussianBlur1024Out" stdDeviation="0 0"/></filter></defs><g><g><g filter="url(#uwgra)"><path fill="none" d="M11.43 12.132l-8.964 9.48a.97.97 0 0 1-1.425 0 1.106 1.106 0 0 1 0-1.504l8.253-8.728-8.252-8.728a1.108 1.108 0 0 1 0-1.506.97.97 0 0 1 1.425 0l8.964 9.48a1.12 1.12 0 0 1-.001 1.506z" mask="url(&quot;#uwgrb&quot;)"/><path fill="#580e54" d="M11.43 12.132l-8.964 9.48a.97.97 0 0 1-1.425 0 1.106 1.106 0 0 1 0-1.504l8.253-8.728-8.252-8.728a1.108 1.108 0 0 1 0-1.506.97.97 0 0 1 1.425 0l8.964 9.48a1.12 1.12 0 0 1-.001 1.506z"/></g><path fill="#fff" d="M11.43 12.132l-8.964 9.48a.97.97 0 0 1-1.425 0 1.106 1.106 0 0 1 0-1.504l8.253-8.728-8.252-8.728a1.108 1.108 0 0 1 0-1.506.97.97 0 0 1 1.425 0l8.964 9.48a1.12 1.12 0 0 1-.001 1.506z"/></g></g></svg>
