<svg xmlns="http://www.w3.org/2000/svg" width="78" height="78" viewBox="0 0 78 78"><g><g><path fill="#d73cac" d="M78 63.934c0 5.58-2.777 10.758-7.428 13.852L70.25 78H52.557l-.32-.214a16.604 16.604 0 0 1-7.429-13.852c0-2.233.46-4.399 1.296-6.394h-.02v-.754c0-4.452-.713-8.854-2.118-13.076a8.514 8.514 0 0 1 .17-5.836l.141-.353a25.17 25.17 0 0 0 1.775-8.112H33.349c.14 2.785.736 5.509 1.775 8.112l.142.354a8.503 8.503 0 0 1 .172 5.834 41.348 41.348 0 0 0-2.119 13.077v1.363c1.563.805 2.553 1.872 2.553 3.228 0 1.655-1.478 2.88-3.674 3.72 3.645 1.05 6.227 2.804 6.227 5.23 0 1.336-.783 2.466-2.092 3.39 2.346-.153 4.689-.33 7.021-.565l2.605-.26.254 2.544-2.605.261-.076.006V78h-2.553v-2.073c-5.935.517-11.931.794-17.873.794-5.941 0-11.938-.277-17.872-.794V78H2.68v-2.297l-.076-.006L0 75.437l.254-2.546 2.603.261c2.333.234 4.675.412 7.021.564-1.308-.923-2.092-2.054-2.092-3.389 0-2.427 2.583-4.18 6.227-5.23-2.196-.84-3.674-2.065-3.674-3.72 0-2.154 2.49-3.586 5.83-4.375-1.26-.877-2-2.019-2-3.298 0-2.915 3.842-5.115 8.937-5.115 3.62 0 6.6 1.114 8.027 2.805.355-2.881.961-5.725 1.883-8.493a5.91 5.91 0 0 0-.12-4.075l-.142-.356a27.774 27.774 0 0 1-1.987-10.34v-1.278h7.66v-6.629a3.825 3.825 0 0 1-2.1-1.829 3.85 3.85 0 0 1-1.138.19c-.98 0-1.962-.374-2.708-1.12-1.04-1.042-1.339-2.535-.93-3.853-1.22-.643-2.062-1.909-2.062-3.382s.843-2.739 2.06-3.383c-.408-1.317-.11-2.81.931-3.852 1.04-1.04 2.53-1.339 3.845-.93C36.968.843 38.231 0 39.702 0c1.47 0 2.734.843 3.376 2.064 1.315-.408 2.805-.11 3.844.93 1.04 1.043 1.34 2.535.93 3.853 1.22.642 2.062 1.91 2.062 3.382 0 1.473-.842 2.74-2.06 3.382.408 1.317.11 2.81-.931 3.852a3.828 3.828 0 0 1-2.709 1.121 3.84 3.84 0 0 1-1.136-.189 3.826 3.826 0 0 1-2.1 1.828v6.63h7.66v1.278c0 3.556-.67 7.036-1.988 10.34l-.142.354a5.925 5.925 0 0 0-.12 4.076 43.854 43.854 0 0 1 2.118 10.602 16.623 16.623 0 0 1 5.238-4.3v-9.564h-2.553v-2.557h20.426v2.557h-2.553v9.564C74.519 52.053 78 57.747 78 63.934zM45.264 14.065h-1.732V15.8c.494.321 1.151.29 1.587-.146.432-.433.465-1.092.145-1.588zm-1.732-9.407v1.735h1.732c.32-.496.287-1.155-.146-1.59-.433-.433-1.09-.465-1.586-.145zm0 5.571c0 .45-.092.878-.235 1.28h2.788a1.279 1.279 0 0 0 0-2.559h-2.788c.143.402.235.829.235 1.28zM34.14 6.393h1.732V4.66c-.495-.322-1.153-.29-1.587.146-.433.433-.466 1.092-.145 1.588zm1.732 7.672H34.14c-.32.496-.288 1.155.145 1.59.434.433 1.092.465 1.587.144zm0-3.836c0-.45.092-.877.235-1.279H33.32a1.279 1.279 0 0 0 0 2.558h2.788a3.797 3.797 0 0 1-.235-1.279zm-5.83 46.773c.245.06.489.12.724.183v-.399c0-.133.015-.264.015-.397a6.01 6.01 0 0 1-.74.613zm-13.319-3.297c0 1.042 2.487 2.557 6.383 2.557s6.383-1.515 6.383-2.557-2.487-2.558-6.383-2.558-6.383 1.516-6.383 2.558zm6.383 12.792c-7.675 0-12.766 2.31-12.766 3.836 0 1.487 4.833 3.831 12.169 3.831h1.193c7.337 0 12.17-2.344 12.17-3.83 0-1.528-5.091-3.837-12.766-3.837zm10.213-5.12c0-.657-3.51-2.557-10.213-2.557-6.702 0-10.213 1.9-10.213 2.557s3.511 2.557 10.213 2.557c6.702 0 10.213-1.9 10.213-2.557zm5.106-54.749c.401-.143.827-.235 1.277-.235.45 0 .876.092 1.277.235V3.836c0-.706-.573-1.28-1.277-1.28a1.28 1.28 0 0 0-1.277 1.28zm0 3.601c0 .706.573 1.279 1.277 1.279a1.28 1.28 0 0 0 0-2.558c-.704 0-1.277.573-1.277 1.28zm2.554 6.394V13.83c-.401.143-.828.235-1.277.235-.45 0-.876-.092-1.277-.235v2.793c0 .706.573 1.279 1.277 1.279a1.28 1.28 0 0 0 1.277-1.28zm34.468 47.311c0-.868-.09-1.72-.246-2.557h-3.584V58.82h2.853a14.114 14.114 0 0 0-7.215-7.66l-.744-.342V39.639H56.298v11.179l-.744.342a14.117 14.117 0 0 0-7.216 7.66h20.726v2.557H47.608c-.157.836-.247 1.689-.247 2.557 0 4.596 2.227 8.87 5.976 11.509h16.134a14.048 14.048 0 0 0 5.976-11.509z"/></g></g></svg>