<svg xmlns="http://www.w3.org/2000/svg" width="11" height="23" viewBox="0 0 11 23"><defs><mask id="o3d3b" width="2" height="2" x="-1" y="-1"><path fill="#fff" d="M0 0h11v22H0z"/><path d="M.34 12.132l8.964 9.48a.97.97 0 0 0 1.425 0 1.106 1.106 0 0 0 0-1.504L2.476 11.38l8.252-8.728a1.108 1.108 0 0 0 0-1.506.97.97 0 0 0-1.425 0L.34 10.626a1.12 1.12 0 0 0 .001 1.506z"/></mask><filter id="o3d3a" width="31" height="43" x="-10" y="-10" filterUnits="userSpaceOnUse"><feOffset dy="1" in="SourceGraphic" result="FeOffset1043Out"/><feGaussianBlur in="FeOffset1043Out" result="FeGaussianBlur1044Out" stdDeviation="0 0"/></filter></defs><g><g><g filter="url(#o3d3a)"><path fill="none" d="M.34 12.132l8.964 9.48a.97.97 0 0 0 1.425 0 1.106 1.106 0 0 0 0-1.504L2.476 11.38l8.252-8.728a1.108 1.108 0 0 0 0-1.506.97.97 0 0 0-1.425 0L.34 10.626a1.12 1.12 0 0 0 .001 1.506z" mask="url(&quot;#o3d3b&quot;)"/><path fill="#580e54" d="M.34 12.132l8.964 9.48a.97.97 0 0 0 1.425 0 1.106 1.106 0 0 0 0-1.504L2.476 11.38l8.252-8.728a1.108 1.108 0 0 0 0-1.506.97.97 0 0 0-1.425 0L.34 10.626a1.12 1.12 0 0 0 .001 1.506z"/></g><path fill="#fff" d="M.34 12.132l8.964 9.48a.97.97 0 0 0 1.425 0 1.106 1.106 0 0 0 0-1.504L2.476 11.38l8.252-8.728a1.108 1.108 0 0 0 0-1.506.97.97 0 0 0-1.425 0L.34 10.626a1.12 1.12 0 0 0 .001 1.506z"/></g></g></svg>